<?xml version="1.0" encoding="UTF-8"?>
<svg xmlns="http://www.w3.org/2000/svg" version="1.1" viewBox="0 0 3300 2200">
  <defs>
    <style>
      .cls-1 {
        stroke: #00aeef;
      }

      .cls-1, .cls-2, .cls-3 {
        fill: none;
      }

      .cls-1, .cls-2, .cls-3, .cls-4 {
        stroke-width: .5px;
      }

      .cls-2, .cls-4 {
        stroke: #000;
      }

      .cls-5, .cls-4 {
        fill: #fff;
      }

      .cls-6 {
        font-family: Helvetica-Bold, Helvetica;
        font-weight: 700;
      }

      .cls-6, .cls-7 {
        font-size: 13px;
        isolation: isolate;
      }

      .cls-7 {
        font-family: Helvetica, Helvetica;
      }

      .cls-8 {
        fill: #27aae1;
      }

      .cls-3 {
        stroke: #27aae1;
      }
    </style>
  </defs>
  <!-- Generator: Adobe Illustrator 28.6.0, SVG Export Plug-In . SVG Version: 1.2.0 Build 709)  -->
  <g>
    <g id="Layer_1">
      <g id="Notes">
        <rect id="artboard" class="cls-5" width="3300" height="2200"/>
        <line class="cls-2" x1="263" y1="292" x2="3036" y2="292"/>
        <text class="cls-6" transform="translate(263 322)"><tspan x="0" y="0">Weight/Scale Variations</tspan></text>
        <text class="cls-7" transform="translate(534.1 322)"><tspan x="0" y="0">Ultralight</tspan></text>
        <text class="cls-7" transform="translate(843.8 322)"><tspan x="0" y="0">Thin</tspan></text>
        <text class="cls-7" transform="translate(1139 322)"><tspan x="0" y="0">Light</tspan></text>
        <text class="cls-7" transform="translate(1427.1 322)"><tspan x="0" y="0">Regular</tspan></text>
        <text class="cls-7" transform="translate(1723.4 322)"><tspan x="0" y="0">Medium</tspan></text>
        <text class="cls-7" transform="translate(2016.2 322)"><tspan x="0" y="0">Semibold</tspan></text>
        <text class="cls-7" transform="translate(2327 322)"><tspan x="0" y="0">Bold</tspan></text>
        <text class="cls-7" transform="translate(2618.3 322)"><tspan x="0" y="0">Heavy</tspan></text>
        <text class="cls-7" transform="translate(2917.5 322)"><tspan x="0" y="0">Black</tspan></text>
        <line class="cls-2" x1="263" y1="1903" x2="3036" y2="1903"/>
        <path d="M272.2,1933.8c4.4,0,7.9-3.5,7.9-7.9s-3.5-7.9-7.9-7.9-7.9,3.5-7.9,7.9,3.5,7.9,7.9,7.9ZM272.2,1932.3c-3.5,0-6.4-2.9-6.4-6.4s2.9-6.4,6.4-6.4,6.4,2.9,6.4,6.4-2.9,6.4-6.4,6.4ZM273,1928.8v-5.7c0-.4-.3-.8-.7-.8s-.7.3-.7.8v5.7c0,.4.3.7.7.7s.7-.3.7-.7ZM269.4,1926.7h5.7c.4,0,.7-.3.7-.7s-.3-.7-.7-.7h-5.7c-.4,0-.8.3-.8.7s.3.7.8.7Z"/>
        <path d="M293.2,1935.9c5.5,0,10-4.5,10-10s-4.5-10-10-10-10,4.5-10,10,4.5,10,10,10ZM293.2,1934.3c-4.6,0-8.3-3.7-8.3-8.3s3.7-8.3,8.3-8.3,8.3,3.7,8.3,8.3-3.7,8.3-8.3,8.3ZM294,1929.6v-7.4c0-.5-.3-.8-.8-.8s-.8.3-.8.8v7.4c0,.5.3.8.8.8s.8-.3.8-.8ZM289.5,1926.8h7.4c.5,0,.8-.3.8-.8s-.3-.8-.8-.8h-7.4c-.5,0-.8.3-.8.8s.3.8.8.8Z"/>
        <path d="M319.9,1938.7c7,0,12.7-5.7,12.7-12.7s-5.7-12.7-12.7-12.7-12.7,5.7-12.7,12.7,5.7,12.7,12.7,12.7ZM319.9,1936.8c-6,0-10.9-4.9-10.9-10.9s4.9-10.9,10.9-10.9,10.9,4.9,10.9,10.9-4.9,10.9-10.9,10.9ZM320.8,1930.8v-9.7c0-.5-.4-.9-.9-.9s-.9.4-.9.9v9.7c0,.5.4.9.9.9s.9-.4.9-.9ZM315,1926.8h9.7c.5,0,.9-.4.9-.9s-.4-.9-.9-.9h-9.7c-.5,0-.9.4-.9.9s.4.9.9.9Z"/>
        <text class="cls-6" transform="translate(263 1953)"><tspan x="0" y="0">Design Variations</tspan></text>
        <text class="cls-7" transform="translate(263 1971)"><tspan x="0" y="0">Symbols are supported in up to nine weights and three scales.</tspan></text>
        <text class="cls-7" transform="translate(263 1989)"><tspan x="0" y="0">For optimal layout with text and other symbols, vertically align</tspan></text>
        <text class="cls-7" transform="translate(263 2007)"><tspan x="0" y="0">symbols with the adjacent text.</tspan></text>
        <line class="cls-1" x1="776" y1="1919" x2="776" y2="1933"/>
        <path d="M779.3,1933.2c.5,0,.8-.2,1-.7l4.1-11.5h0l4.1,11.5c.2.5.4.7.9.7s.8-.3.8-.8,0-.3-.1-.5l-4.6-12.2c-.2-.6-.6-.9-1.3-.9s-1,.3-1.2.9l-4.6,12.2c0,.2-.1.4-.1.5,0,.5.3.8.8.8ZM781.4,1929h6.1c.4,0,.7-.3.7-.7s-.3-.7-.7-.7h-6.1c-.4,0-.7.3-.7.7s.3.7.7.7Z"/>
        <line class="cls-1" x1="792.8" y1="1919" x2="792.8" y2="1933"/>
        <text class="cls-6" transform="translate(776 1953)"><tspan x="0" y="0">Margins</tspan></text>
        <text class="cls-7" transform="translate(776 1971)"><tspan x="0" y="0">Leading and trailing margins on the left and right side of each symbol</tspan></text>
        <text class="cls-7" transform="translate(776 1989)"><tspan x="0" y="0">can be adjusted by modifying the x-location of the margin guidelines.</tspan></text>
        <text class="cls-7" transform="translate(776 2007)"><tspan x="0" y="0">Modifications are automatically applied proportionally to all</tspan></text>
        <text class="cls-7" transform="translate(776 2025)"><tspan x="0" y="0">scales and weights.</tspan></text>
        <path d="M1291.8,1935.6l1.6,1.6c.9.9,1.9.8,2.8-.2l12.1-13.6-1-1-12.1,13.5c-.4.4-.7.5-1.2,0l-1-1c-.5-.5-.4-.8,0-1.2l13.5-12.4-1-1-13.6,12.5c-1,.9-1.1,1.9-.2,2.8h0ZM1300.8,1916.1c-.4.4-.4,1-.2,1.4.2.4.7.6,1.3.4,1.2-.3,2.5-.5,3.8.2l-.5,1.4c-.3.8-.1,1.4.3,1.9l2.1,2.1c.5.5.9.5,1.4.4h.9c0-.1.5.4.5.4v.4c0,.5,0,.9.5,1.3l.7.7c.5.5,1.1.5,1.6,0l2.6-2.6c.5-.5.4-1.1,0-1.5l-.7-.7c-.4-.4-.8-.6-1.3-.6h-.5s-.5-.4-.5-.4l.2-.9c.1-.5,0-1-.6-1.5l-2.3-2.2c-2.6-2.6-7.1-2.2-9.3,0ZM1302.2,1916.5c1.8-1.3,5.2-1.1,6.7.4l2.5,2.4c.2.2.2.4.2.7l-.3,1.3,1.3,1.3h.9c.2,0,.3,0,.5.1l.5.5-2.2,2.2-.5-.5c-.2-.2-.2-.2-.2-.5v-.9c0,0-1.3-1.3-1.3-1.3l-1.4.2c-.3,0-.4,0-.6-.2l-1.8-1.8c-.2-.2-.2-.3,0-.7l.9-2.3c-1.2-1.3-3.4-1.5-5.1-.9-.1,0-.2,0,0-.2h0Z"/>
        <text class="cls-6" transform="translate(1289 1953)"><tspan x="0" y="0">Exporting</tspan></text>
        <text class="cls-7" transform="translate(1289 1971)"><tspan x="0" y="0">Symbols should be outlined when exporting to ensure the</tspan></text>
        <text class="cls-7" transform="translate(1289 1989)"><tspan x="0" y="0">design is preserved when submitting to Xcode.</tspan></text>
        <text id="template-version" class="cls-7" transform="translate(2952.4 1933)"><tspan x="0" y="0">Template v.7.0</tspan></text>
        <text class="cls-7" transform="translate(2865.5 1951)"><tspan x="0" y="0">Requires Xcode 26 or greater</tspan></text>
        <text id="descriptive-name" class="cls-7" transform="translate(2853.2 1969)"><tspan x="0" y="0">Generated from increase.indent</tspan></text>
        <text class="cls-7" transform="translate(2901.6 1987)"><tspan x="0" y="0">Typeset at 100.0 points</tspan></text>
        <text class="cls-7" transform="translate(263 726)"><tspan x="0" y="0">Small</tspan></text>
        <text class="cls-7" transform="translate(263 1156)"><tspan x="0" y="0">Medium</tspan></text>
        <text class="cls-7" transform="translate(263 1586)"><tspan x="0" y="0">Large</tspan></text>
      </g>
      <g id="Guides">
        <g id="H-reference">
          <path class="cls-8" d="M340,696h2.6l25.7-67.1h.7v-3.3h-1.9l-27.1,70.5ZM350.7,671.5h35.3l-.8-2.2h-33.8l-.8,2.2ZM394.1,696h2.6l-27.1-70.5h-1.2v3.3l25.7,67.1Z"/>
        </g>
        <line id="Baseline-S" class="cls-3" x1="263" y1="696" x2="3036" y2="696"/>
        <line id="Capline-S" class="cls-3" x1="263" y1="625.5" x2="3036" y2="625.5"/>
        <g id="H-reference-2" data-name="H-reference">
          <path class="cls-8" d="M340,1126h2.6l25.7-67.1h.7v-3.3h-1.9l-27.1,70.5ZM350.7,1101.5h35.3l-.8-2.2h-33.8l-.8,2.2ZM394.1,1126h2.6l-27.1-70.5h-1.2v3.3l25.7,67.1Z"/>
        </g>
        <line id="Baseline-M" class="cls-3" x1="263" y1="1126" x2="3036" y2="1126"/>
        <line id="Capline-M" class="cls-3" x1="263" y1="1055.5" x2="3036" y2="1055.5"/>
        <g id="H-reference-3" data-name="H-reference">
          <path class="cls-8" d="M340,1556h2.6l25.7-67.1h.7v-3.3h-1.9l-27.1,70.5ZM350.7,1531.5h35.3l-.8-2.2h-33.8l-.8,2.2ZM394.1,1556h2.6l-27.1-70.5h-1.2v3.3l25.7,67.1Z"/>
        </g>
        <line id="Baseline-L" class="cls-3" x1="263" y1="1556" x2="3036" y2="1556"/>
        <line id="Capline-L" class="cls-3" x1="263" y1="1485.5" x2="3036" y2="1485.5"/>
        <line id="right-margin-Black-S" class="cls-1" x1="2982.7" y1="600.8" x2="2982.7" y2="720.1"/>
        <line id="left-margin-Black-S" class="cls-1" x1="2884.1" y1="600.8" x2="2884.1" y2="720.1"/>
        <line id="right-margin-Regular-S" class="cls-1" x1="1497.1" y1="600.8" x2="1497.1" y2="720.1"/>
        <line id="left-margin-Regular-S" class="cls-1" x1="1402.6" y1="600.8" x2="1402.6" y2="720.1"/>
        <line id="right-margin-Ultralight-S" class="cls-1" x1="604" y1="600.8" x2="604" y2="720.1"/>
        <line id="left-margin-Ultralight-S" class="cls-1" x1="515.5" y1="600.8" x2="515.5" y2="720.1"/>
      </g>
      <g id="Symbols">
        <g id="Black-S">
          <path class="cls-2" d="M2958.1,676.2h-57.2c-4,0-7,3-7,7s3,7,7,7h57.2c5.3,0,7.9-3.5,7.9-7s-2.6-7-7.9-7ZM2940.9,697.9c-1.4,1.3-2,3-2,4.9,0,4.1,2.9,7,7,7s3.8-.8,5-2.1l19.8-19.2c3-2.9,3-7.5,0-10.4l-19.8-19.2c-1.3-1.3-3.2-2.1-5-2.1-4.1,0-7,2.9-7,7s.6,3.6,2,4.9l11.3,10.8,4,3.8-4.2,4.1-11.1,10.5Z"/>
          <path class="cls-2" d="M2908.7,631.3c-5.3,0-7.9,3.5-7.9,7s2.6,7,7.9,7h57.2c4,0,7-3,7-7s-3-7-7-7h-57.2ZM2925.9,652.9l-11.1-10.5-4.2-4.1,4-3.8,11.3-10.8c1.4-1.3,2-3,2-4.9,0-4.1-2.9-7-7-7s-3.8.8-5,2.1l-19.8,19.2c-3,2.9-3,7.5,0,10.4l19.8,19.2c1.3,1.3,3.2,2.1,5,2.1,4.1,0,7-2.9,7-7s-.6-3.6-2-4.9Z"/>
        </g>
        <g id="Regular-S">
          <path class="cls-2" d="M1479.2,680.1l-12.9-.9h-50c-2.3,0-4,1.7-4,4s1.7,4,4,4h50l12.9-1c2-.2,3-1.6,3-3s-1-2.9-3-3ZM1460.5,700c-.7.7-1.1,1.6-1.1,2.7,0,2.3,1.6,3.9,3.9,3.9s2.1-.5,2.8-1.2l19.8-19.2c1.7-1.6,1.8-4.2,0-5.9l-19.8-19.2c-.7-.8-1.9-1.2-2.8-1.2-2.3,0-3.9,1.6-3.9,3.9s.4,2,1.1,2.7l7.9,7.5,11.2,9.3-11.2,9.3-7.9,7.5Z"/>
          <path class="cls-2" d="M1420.5,635.3c-2,.1-3,1.6-3,3s1.1,2.8,3,3l12.9,1h50c2.3,0,4-1.7,4-4s-1.7-4-4-4h-50l-12.9.9ZM1439.2,655.2l-7.9-7.5-11.2-9.3,11.2-9.3,7.9-7.5c.7-.7,1.1-1.6,1.1-2.7,0-2.3-1.6-3.9-3.9-3.9s-2.1.5-2.8,1.2l-19.8,19.2c-1.8,1.7-1.7,4.2,0,5.9l19.8,19.2c.7.7,1.9,1.2,2.8,1.2,2.3,0,3.9-1.6,3.9-3.9s-.4-2-1.1-2.7Z"/>
          <rect class="cls-4" x="1385.1" y="634.4" width="46.8" height="7.9" rx="4" ry="4" transform="translate(2046.8 -770.1) rotate(90)"/>
          <rect class="cls-4" x="1467.9" y="679.3" width="46.8" height="7.9" rx="4" ry="4" transform="translate(2174.5 -808) rotate(90)"/>
        </g>
        <g id="Ultralight-S">
          <path class="cls-2" d="M591.9,681.3l-9.3-.2h-56.2c-.6,0-1.1.4-1.1,1.1s.5,1.1,1.1,1.1h65.5c.5-.1,1-.6,1-1.1s-.4-1-1-1ZM572.7,701.1c-.4.3-.5.7-.5,1,0,.6.5,1.1,1.1,1.1s.7-.1,1-.4l19.5-19.6c.4-.5.5-1.2,0-1.7l-19.5-19.6c-.3-.3-.6-.4-1-.4-.7,0-1.1.5-1.1,1.1s.1.7.5,1.1l10,10,9,8.8-9,8.8-10,10Z"/>
          <path class="cls-2" d="M527.5,638.2c-.5,0-1,.5-1,1s.4,1,1,1l9.3.2h56.2c.6,0,1.1-.4,1.1-1.1s-.5-1.1-1.1-1.1h-65.5ZM546.8,658l-10-10-9-8.8,9-8.8,10-10c.4-.3.5-.7.5-1,0-.6-.5-1.1-1.1-1.1s-.7.1-1,.4l-19.5,19.6c-.5.5-.4,1.3,0,1.7l19.5,19.6c.3.3.5.4,1,.4s1.1-.5,1.1-1.1-.1-.7-.5-1.1Z"/>
          <rect class="cls-4" x="503.2" y="638.1" width="41.8" height="2.2" rx="1" ry="1" transform="translate(-115.1 1163.4) rotate(-90)"/>
          <rect class="cls-4" x="574.4" y="681.2" width="41.8" height="2.2" rx="1" ry="1" transform="translate(-87 1277.6) rotate(-90)"/>
        </g>
      </g>
      <rect class="cls-4" x="2867.4" y="631.3" width="52.9" height="14.1" rx="7" ry="7" transform="translate(3532.2 -2255.5) rotate(90)"/>
      <rect class="cls-4" x="2946.5" y="676.2" width="52.9" height="14.1" rx="7" ry="7" transform="translate(3656.2 -2289.7) rotate(90)"/>
    </g>
  </g>
</svg>